<mxfile host="app.diagrams.net" modified="2024-07-16T07:19:40.556Z" agent="Mozilla/5.0 (Windows NT 10.0; Win64; x64) AppleWebKit/537.36 (KHTML, like Gecko) Chrome/126.0.0.0 Safari/537.36 Edg/126.0.0.0" etag="33VAB80MPYRJjAxRY9cn" version="24.6.5" type="device">
  <diagram id="Bom2Y7GCucXXIgJSMt-n" name="Page-2">
    <mxGraphModel dx="1434" dy="827" grid="1" gridSize="10" guides="1" tooltips="1" connect="1" arrows="1" fold="1" page="1" pageScale="1" pageWidth="1100" pageHeight="850" math="0" shadow="0">
      <root>
        <mxCell id="0" />
        <mxCell id="1" parent="0" />
        <mxCell id="Ub_6eM_rhkK4rnrmzPiu-1" value="" style="verticalLabelPosition=bottom;html=1;verticalAlign=top;align=center;strokeColor=default;fillColor=#00BEF2;shape=mxgraph.azure.computer;pointerEvents=1;gradientColor=default;shadow=0;textShadow=0;direction=east;flipH=0;flipV=0;" parent="1" vertex="1">
          <mxGeometry x="60" y="275" width="100" height="100" as="geometry" />
        </mxCell>
        <mxCell id="Ub_6eM_rhkK4rnrmzPiu-2" value="" style="shape=singleArrow;direction=west;whiteSpace=wrap;html=1;gradientColor=default;shadow=0;textShadow=0;flipH=0;flipV=0;strokeColor=default;" parent="1" vertex="1">
          <mxGeometry x="170" y="295" width="100" height="20" as="geometry" />
        </mxCell>
        <mxCell id="Ub_6eM_rhkK4rnrmzPiu-3" value="" style="shape=singleArrow;whiteSpace=wrap;html=1;gradientColor=default;shadow=0;textShadow=0;direction=east;flipH=0;flipV=0;strokeColor=default;" parent="1" vertex="1">
          <mxGeometry x="170" y="315" width="100" height="20" as="geometry" />
        </mxCell>
        <mxCell id="Ub_6eM_rhkK4rnrmzPiu-4" value="Pull" style="rounded=0;whiteSpace=wrap;html=1;arcSize=50;strokeColor=none;strokeWidth=1;fillColor=none;fontColor=#000000;whiteSpace=wrap;align=left;verticalAlign=middle;spacingLeft=0;fontStyle=1;fontSize=14;spacing=10;textShadow=0;labelBorderColor=none;shadow=0;direction=east;flipH=0;flipV=0;" parent="1" vertex="1">
          <mxGeometry x="195" y="275" width="40" height="20" as="geometry" />
        </mxCell>
        <mxCell id="Ub_6eM_rhkK4rnrmzPiu-5" value="Push" style="rounded=0;whiteSpace=wrap;html=1;arcSize=50;strokeColor=none;strokeWidth=1;fillColor=none;fontColor=#000000;whiteSpace=wrap;align=left;verticalAlign=middle;spacingLeft=0;fontStyle=1;fontSize=14;spacing=10;textShadow=0;shadow=0;direction=east;flipH=0;flipV=0;" parent="1" vertex="1">
          <mxGeometry x="190" y="335" width="50" height="20" as="geometry" />
        </mxCell>
        <mxCell id="YZ31xkfmWvyY0ZkBBPFm-4" style="edgeStyle=orthogonalEdgeStyle;rounded=0;orthogonalLoop=1;jettySize=auto;html=1;exitX=1;exitY=0.25;exitDx=0;exitDy=0;entryX=0.5;entryY=1;entryDx=0;entryDy=0;" parent="1" source="Ub_6eM_rhkK4rnrmzPiu-6" target="P1D1vN6JfQfnxF3JzwK7-5" edge="1">
          <mxGeometry relative="1" as="geometry" />
        </mxCell>
        <mxCell id="cF--H1yc2ZSGr-OTiTdq-4" style="edgeStyle=orthogonalEdgeStyle;rounded=0;orthogonalLoop=1;jettySize=auto;html=1;exitX=1;exitY=0.25;exitDx=0;exitDy=0;entryX=0.75;entryY=1;entryDx=0;entryDy=0;" parent="1" source="Ub_6eM_rhkK4rnrmzPiu-6" target="P1D1vN6JfQfnxF3JzwK7-1" edge="1">
          <mxGeometry relative="1" as="geometry" />
        </mxCell>
        <mxCell id="Ub_6eM_rhkK4rnrmzPiu-6" value="" style="shape=ext;double=1;rounded=1;whiteSpace=wrap;html=1;shadow=0;textShadow=0;direction=east;flipH=0;flipV=0;strokeColor=default;" parent="1" vertex="1">
          <mxGeometry x="520" y="280" width="120" height="80" as="geometry" />
        </mxCell>
        <mxCell id="Ub_6eM_rhkK4rnrmzPiu-7" value="" style="image;aspect=fixed;html=1;points=[];align=right;fontSize=12;image=img/lib/azure2/general/Branch.svg;shadow=0;textShadow=0;labelPosition=left;verticalLabelPosition=top;verticalAlign=bottom;direction=east;flipH=0;flipV=0;strokeColor=default;" parent="1" vertex="1">
          <mxGeometry x="510" y="270" width="30" height="30" as="geometry" />
        </mxCell>
        <mxCell id="Ub_6eM_rhkK4rnrmzPiu-8" value="" style="verticalLabelPosition=middle;html=1;verticalAlign=middle;align=center;strokeColor=default;fillColor=#00BEF2;shape=mxgraph.azure.git_repository;shadow=0;textShadow=0;labelPosition=center;direction=east;flipH=0;flipV=0;" parent="1" vertex="1">
          <mxGeometry x="550" y="290" width="50" height="50" as="geometry" />
        </mxCell>
        <mxCell id="Ub_6eM_rhkK4rnrmzPiu-9" value="" style="shape=ext;double=1;rounded=1;whiteSpace=wrap;html=1;shadow=0;labelBorderColor=none;textShadow=0;flipH=0;glass=0;direction=east;flipV=0;strokeColor=default;" parent="1" vertex="1">
          <mxGeometry x="280" y="280" width="120" height="80" as="geometry" />
        </mxCell>
        <mxCell id="Ub_6eM_rhkK4rnrmzPiu-10" value="" style="image;aspect=fixed;html=1;points=[];align=right;fontSize=12;image=img/lib/azure2/general/Branch.svg;shadow=0;labelBorderColor=none;textShadow=0;flipH=0;labelPosition=left;verticalLabelPosition=top;verticalAlign=bottom;direction=east;flipV=0;strokeColor=default;" parent="1" vertex="1">
          <mxGeometry x="270" y="270" width="30" height="30" as="geometry" />
        </mxCell>
        <mxCell id="Ub_6eM_rhkK4rnrmzPiu-11" value="" style="verticalLabelPosition=middle;html=1;verticalAlign=middle;align=center;strokeColor=default;fillColor=#00BEF2;shape=mxgraph.azure.git_repository;shadow=0;labelBorderColor=none;textShadow=0;flipH=0;labelPosition=center;direction=east;flipV=0;" parent="1" vertex="1">
          <mxGeometry x="310" y="290" width="50" height="50" as="geometry" />
        </mxCell>
        <mxCell id="Ub_6eM_rhkK4rnrmzPiu-13" value="" style="shape=singleArrow;direction=west;whiteSpace=wrap;html=1;gradientColor=default;shadow=0;textShadow=0;flipH=0;flipV=0;strokeColor=default;" parent="1" vertex="1">
          <mxGeometry x="410" y="295" width="100" height="20" as="geometry" />
        </mxCell>
        <mxCell id="Ub_6eM_rhkK4rnrmzPiu-14" value="" style="shape=singleArrow;whiteSpace=wrap;html=1;gradientColor=default;shadow=0;textShadow=0;direction=east;flipH=0;flipV=0;strokeColor=default;" parent="1" vertex="1">
          <mxGeometry x="410" y="315" width="100" height="20" as="geometry" />
        </mxCell>
        <mxCell id="Ub_6eM_rhkK4rnrmzPiu-15" value="Branch" style="rounded=0;whiteSpace=wrap;html=1;arcSize=50;strokeColor=none;strokeWidth=1;fillColor=none;fontColor=#000000;whiteSpace=wrap;align=left;verticalAlign=middle;spacingLeft=0;fontStyle=1;fontSize=14;spacing=10;textShadow=0;labelBorderColor=none;shadow=0;direction=east;flipH=0;flipV=0;" parent="1" vertex="1">
          <mxGeometry x="425" y="275" width="70" height="20" as="geometry" />
        </mxCell>
        <mxCell id="Ub_6eM_rhkK4rnrmzPiu-16" value="Merge" style="rounded=0;whiteSpace=wrap;html=1;arcSize=50;strokeColor=none;strokeWidth=1;fillColor=none;fontColor=#000000;whiteSpace=wrap;align=left;verticalAlign=middle;spacingLeft=0;fontStyle=1;fontSize=14;spacing=10;textShadow=0;shadow=0;direction=east;flipH=0;flipV=0;" parent="1" vertex="1">
          <mxGeometry x="430" y="335" width="60" height="20" as="geometry" />
        </mxCell>
        <mxCell id="Ub_6eM_rhkK4rnrmzPiu-17" value="Feature" style="rounded=0;whiteSpace=wrap;html=1;arcSize=50;strokeColor=none;strokeWidth=1;fillColor=none;fontColor=#000000;whiteSpace=wrap;align=left;verticalAlign=middle;spacingLeft=0;fontStyle=1;fontSize=14;spacing=10;textShadow=0;shadow=0;direction=east;flipH=0;flipV=0;" parent="1" vertex="1">
          <mxGeometry x="310" y="375" width="60" height="20" as="geometry" />
        </mxCell>
        <mxCell id="Ub_6eM_rhkK4rnrmzPiu-18" value="Main" style="rounded=0;whiteSpace=wrap;html=1;arcSize=50;strokeColor=none;strokeWidth=1;fillColor=none;fontColor=#000000;whiteSpace=wrap;align=left;verticalAlign=middle;spacingLeft=0;fontStyle=1;fontSize=14;spacing=10;textShadow=0;shadow=0;direction=east;flipH=0;flipV=0;" parent="1" vertex="1">
          <mxGeometry x="550" y="375" width="100" height="20" as="geometry" />
        </mxCell>
        <mxCell id="oDvuOgoTyZ9iSBKpnRsw-1" value="Sync" style="rounded=0;whiteSpace=wrap;html=1;arcSize=50;strokeColor=none;strokeWidth=1;fillColor=none;fontColor=#000000;whiteSpace=wrap;align=left;verticalAlign=middle;spacingLeft=0;fontStyle=1;fontSize=14;spacing=10;textShadow=0;labelBorderColor=none;shadow=0;direction=east;flipH=0;flipV=0;glass=0;" parent="1" vertex="1">
          <mxGeometry x="278.5" y="230" width="60" height="20" as="geometry" />
        </mxCell>
        <mxCell id="oDvuOgoTyZ9iSBKpnRsw-2" value="" style="shape=doubleArrow;direction=south;whiteSpace=wrap;html=1;gradientColor=default;shadow=0;textShadow=0;flipH=0;flipV=0;strokeColor=default;" parent="1" vertex="1">
          <mxGeometry x="330" y="200" width="20" height="70" as="geometry" />
        </mxCell>
        <mxCell id="oDvuOgoTyZ9iSBKpnRsw-3" value="" style="shape=ext;double=1;rounded=1;whiteSpace=wrap;html=1;shadow=0;labelBorderColor=none;textShadow=0;flipH=0;glass=0;direction=east;flipV=0;strokeColor=#36393d;fillColor=#eeeeee;" parent="1" vertex="1">
          <mxGeometry x="278.5" y="40" width="120" height="150" as="geometry" />
        </mxCell>
        <mxCell id="oDvuOgoTyZ9iSBKpnRsw-4" value="" style="shape=image;verticalLabelPosition=bottom;verticalAlign=top;imageAspect=0;image=https://www.brasoftware.com.br/Marketing/Microsoft/2023/ebook/fabric/img/icon-microsoft-fabric.png;shadow=0;textShadow=1;" parent="1" vertex="1">
          <mxGeometry x="228.5" y="20" width="75" height="75" as="geometry" />
        </mxCell>
        <mxCell id="oDvuOgoTyZ9iSBKpnRsw-5" value="" style="image;aspect=fixed;html=1;points=[];align=center;fontSize=12;image=img/lib/azure2/compute/Workspaces.svg;shadow=0;textShadow=0;" parent="1" vertex="1">
          <mxGeometry x="306" y="87" width="65" height="56.00000000000001" as="geometry" />
        </mxCell>
        <mxCell id="oDvuOgoTyZ9iSBKpnRsw-6" value="Feature Workspaces" style="rounded=1;whiteSpace=wrap;html=1;arcSize=50;strokeColor=none;strokeWidth=1;fillColor=none;fontColor=#000000;whiteSpace=wrap;align=left;verticalAlign=middle;spacingLeft=0;fontStyle=1;fontSize=10;spacing=10;textShadow=0;shadow=0;direction=east;flipH=0;flipV=0;" parent="1" vertex="1">
          <mxGeometry x="280" y="143" width="120" height="27" as="geometry" />
        </mxCell>
        <mxCell id="P1D1vN6JfQfnxF3JzwK7-1" value="" style="shape=ext;double=1;rounded=1;whiteSpace=wrap;html=1;shadow=0;labelBorderColor=none;textShadow=0;flipH=0;glass=0;direction=east;flipV=0;strokeColor=#36393d;fillColor=#eeeeee;" parent="1" vertex="1">
          <mxGeometry x="604" y="40" width="120" height="150" as="geometry" />
        </mxCell>
        <mxCell id="P1D1vN6JfQfnxF3JzwK7-2" value="" style="shape=image;verticalLabelPosition=bottom;verticalAlign=top;imageAspect=0;image=https://www.brasoftware.com.br/Marketing/Microsoft/2023/ebook/fabric/img/icon-microsoft-fabric.png;shadow=0;textShadow=1;" parent="1" vertex="1">
          <mxGeometry x="557" y="20" width="75" height="75" as="geometry" />
        </mxCell>
        <mxCell id="P1D1vN6JfQfnxF3JzwK7-3" value="" style="image;aspect=fixed;html=1;points=[];align=center;fontSize=12;image=img/lib/azure2/compute/Workspaces.svg;shadow=0;textShadow=0;" parent="1" vertex="1">
          <mxGeometry x="631.5" y="97" width="65" height="56.00000000000001" as="geometry" />
        </mxCell>
        <mxCell id="P1D1vN6JfQfnxF3JzwK7-4" value="Dev Workspace" style="rounded=1;whiteSpace=wrap;html=1;arcSize=50;strokeColor=none;strokeWidth=1;fillColor=none;fontColor=#000000;whiteSpace=wrap;align=left;verticalAlign=middle;spacingLeft=0;fontStyle=1;fontSize=10;spacing=10;textShadow=0;shadow=0;direction=east;flipH=0;flipV=0;" parent="1" vertex="1">
          <mxGeometry x="614" y="150" width="110" height="27" as="geometry" />
        </mxCell>
        <mxCell id="P1D1vN6JfQfnxF3JzwK7-5" value="" style="shape=ext;double=1;rounded=1;whiteSpace=wrap;html=1;shadow=0;labelBorderColor=none;textShadow=0;flipH=0;glass=0;direction=east;flipV=0;strokeColor=#36393d;fillColor=#eeeeee;" parent="1" vertex="1">
          <mxGeometry x="779" y="40" width="120" height="150" as="geometry" />
        </mxCell>
        <mxCell id="P1D1vN6JfQfnxF3JzwK7-6" value="" style="image;aspect=fixed;html=1;points=[];align=center;fontSize=12;image=img/lib/azure2/compute/Workspaces.svg;shadow=0;textShadow=0;" parent="1" vertex="1">
          <mxGeometry x="806.5" y="97" width="65" height="56.00000000000001" as="geometry" />
        </mxCell>
        <mxCell id="P1D1vN6JfQfnxF3JzwK7-7" value="Test Workspace" style="rounded=1;whiteSpace=wrap;html=1;arcSize=50;strokeColor=none;strokeWidth=1;fillColor=none;fontColor=#000000;whiteSpace=wrap;align=left;verticalAlign=middle;spacingLeft=0;fontStyle=1;fontSize=10;spacing=10;textShadow=0;shadow=0;direction=east;flipH=0;flipV=0;" parent="1" vertex="1">
          <mxGeometry x="790.5" y="150" width="97" height="27" as="geometry" />
        </mxCell>
        <mxCell id="P1D1vN6JfQfnxF3JzwK7-8" value="" style="shape=ext;double=1;rounded=1;whiteSpace=wrap;html=1;shadow=0;labelBorderColor=none;textShadow=1;flipH=0;glass=0;direction=east;flipV=0;strokeColor=#36393d;fillColor=#eeeeee;" parent="1" vertex="1">
          <mxGeometry x="945" y="40" width="118" height="150" as="geometry" />
        </mxCell>
        <mxCell id="P1D1vN6JfQfnxF3JzwK7-9" value="" style="image;aspect=fixed;html=1;points=[];align=center;fontSize=12;image=img/lib/azure2/compute/Workspaces.svg;shadow=0;textShadow=0;" parent="1" vertex="1">
          <mxGeometry x="971.5" y="94" width="65" height="56.00000000000001" as="geometry" />
        </mxCell>
        <mxCell id="P1D1vN6JfQfnxF3JzwK7-10" value="Prod Workspace" style="rounded=1;whiteSpace=wrap;html=1;arcSize=50;strokeColor=none;strokeWidth=1;fillColor=none;fontColor=#000000;whiteSpace=wrap;align=left;verticalAlign=middle;spacingLeft=0;fontStyle=1;fontSize=10;spacing=10;textShadow=0;shadow=0;direction=east;flipH=0;flipV=0;" parent="1" vertex="1">
          <mxGeometry x="955.5" y="150" width="97" height="27" as="geometry" />
        </mxCell>
        <mxCell id="YZ31xkfmWvyY0ZkBBPFm-1" value="" style="image;sketch=0;aspect=fixed;html=1;points=[];align=center;fontSize=12;image=img/lib/mscae/Azure_Pipelines.svg;shadow=0;textShadow=0;direction=east;flipH=0;flipV=0;strokeColor=default;" parent="1" vertex="1">
          <mxGeometry x="730" y="310" width="50" height="50" as="geometry" />
        </mxCell>
        <mxCell id="YZ31xkfmWvyY0ZkBBPFm-5" style="edgeStyle=orthogonalEdgeStyle;rounded=0;orthogonalLoop=1;jettySize=auto;html=1;exitX=1;exitY=0.25;exitDx=0;exitDy=0;entryX=0.593;entryY=1.013;entryDx=0;entryDy=0;entryPerimeter=0;" parent="1" source="Ub_6eM_rhkK4rnrmzPiu-6" target="P1D1vN6JfQfnxF3JzwK7-8" edge="1">
          <mxGeometry relative="1" as="geometry" />
        </mxCell>
        <mxCell id="YZ31xkfmWvyY0ZkBBPFm-16" value="Build and Release pipeline" style="rounded=0;whiteSpace=wrap;html=1;arcSize=50;strokeColor=none;strokeWidth=1;fillColor=none;fontColor=#000000;whiteSpace=wrap;align=left;verticalAlign=middle;spacingLeft=0;fontStyle=1;fontSize=14;spacing=10;textShadow=0;shadow=0;direction=east;flipH=0;flipV=0;" parent="1" vertex="1">
          <mxGeometry x="780" y="310" width="100" height="55" as="geometry" />
        </mxCell>
      </root>
    </mxGraphModel>
  </diagram>
</mxfile>
